<svg version="1.1" id="Layer_1" xmlns="http://www.w3.org/2000/svg" xmlns:xlink="http://www.w3.org/1999/xlink" x="0px" y="0px"
	 width="100%" viewBox="0 0 1024 1024" enable-background="new 0 0 1024 1024" xml:space="preserve">
<path fill="#000000" opacity="1.000000" stroke="none" 
	d="
M846.298035,627.000000 
	C846.296570,648.830139 846.302734,670.160217 846.291321,691.490356 
	C846.283752,705.637085 840.027527,712.247986 825.876404,713.104309 
	C817.496094,713.611511 817.524780,713.621765 814.576416,721.853027 
	C808.093628,739.951904 796.846802,753.568176 776.882202,760.386963 
	C805.985657,761.179443 833.681396,762.118835 861.343506,765.132324 
	C860.921936,768.660034 858.947998,768.190674 857.426147,768.310852 
	C849.138672,768.965149 840.854797,769.723816 832.554321,770.140442 
	C821.750488,770.682678 810.932617,770.945312 800.120300,771.315918 
	C769.985107,772.348755 739.833374,772.030029 709.691772,772.435364 
	C593.389404,773.999451 477.085876,773.228027 360.782593,772.960449 
	C326.635132,772.881836 292.483093,772.697205 258.343292,772.036377 
	C232.225037,771.530823 206.119247,770.279907 180.017517,769.140381 
	C176.427628,768.983704 172.543640,769.016296 169.227982,766.191040 
	C207.686478,760.642395 246.473038,761.541931 285.779938,759.267151 
	C279.334381,754.397644 273.355347,749.789734 268.816315,743.604980 
	C249.913132,717.848328 249.107910,680.129944 266.500732,653.337952 
	C273.334961,642.810547 281.675842,634.474609 294.222198,632.141235 
	C310.246826,629.161072 324.550537,633.650879 336.796417,644.422119 
	C347.673157,653.989075 355.475372,665.685486 359.748993,679.502319 
	C361.047699,683.701050 363.039398,684.856201 367.170471,684.751038 
	C376.814331,684.505371 377.124725,684.086365 373.808350,674.855591 
	C368.731934,660.725952 361.799530,647.783813 350.827484,637.283203 
	C349.738190,636.240723 348.609924,635.190125 349.380432,632.239929 
	C387.785217,629.254517 426.585114,626.432800 465.135223,625.463928 
	C466.766754,628.413269 464.940674,629.684509 464.000793,631.084167 
	C449.406921,652.816284 446.553131,677.055237 448.709229,702.364136 
	C448.948792,705.175964 449.209198,708.028076 449.899994,710.749756 
	C450.944611,714.865234 449.427826,716.077820 445.422089,716.047485 
	C426.759430,715.906006 408.092743,716.116760 389.433563,715.818970 
	C384.470245,715.739868 381.987457,717.177490 380.508972,722.077209 
	C375.869080,737.453857 366.985565,749.796936 352.008850,758.535522 
	C400.966095,758.535522 448.924225,758.535522 497.097107,758.535522 
	C473.809784,742.635132 463.139648,720.126099 461.773926,692.886230 
	C460.647797,670.424133 465.819641,649.623047 479.781189,631.441101 
	C497.880646,607.870361 530.514709,608.403076 547.906494,632.528748 
	C558.571960,647.323792 564.038940,663.798889 564.177917,681.958191 
	C564.212280,686.454468 565.443787,688.121277 570.100037,688.048523 
	C584.927490,687.816956 599.760864,687.993103 614.591736,687.947205 
	C620.630005,687.928528 620.418030,687.730896 620.766479,680.089722 
	C620.990784,675.171631 618.908386,674.168701 614.585876,674.292847 
	C603.940552,674.598572 593.280457,674.413025 582.638000,674.772644 
	C579.062561,674.893433 578.104126,673.513245 577.642090,670.308655 
	C575.557861,655.851746 571.507629,641.983582 563.540405,629.597961 
	C552.936523,613.113525 539.136780,600.969727 518.675781,598.914978 
	C513.834839,598.428833 512.735535,596.113037 512.738403,591.734253 
	C512.784241,523.077698 512.751770,454.420959 512.591248,385.764618 
	C512.582214,381.905945 514.114197,380.352417 517.522766,379.778534 
	C540.624390,375.889313 563.873108,373.009949 587.041931,369.589417 
	C609.857056,366.221039 632.487061,369.388947 655.188721,370.553680 
	C676.452393,371.644653 697.617432,373.919739 718.821106,375.736145 
	C746.508911,378.107971 774.009949,381.947784 801.480530,386.047668 
	C804.375549,386.479736 806.063293,387.752014 806.941040,390.855804 
	C821.016968,440.629456 834.389526,490.580688 845.636902,541.082825 
	C846.152954,543.399841 846.288452,545.685303 846.288879,548.015015 
	C846.293945,574.176697 846.295593,600.338318 846.298035,627.000000 
M762.881348,405.694702 
	C717.631714,400.344879 672.260010,396.489502 626.824097,393.998108 
	C626.222046,395.875854 626.470886,397.123383 626.852234,398.431763 
	C637.790771,435.963562 647.065979,473.914093 655.247070,512.132751 
	C655.990540,515.606018 657.573608,516.631287 660.974731,516.796570 
	C672.440430,517.353943 683.891724,518.222107 695.343872,519.038025 
	C716.915039,520.574768 738.481750,522.174011 760.052551,523.716858 
	C777.800537,524.986328 795.556702,526.147156 813.297546,527.508545 
	C817.075073,527.798462 817.949402,526.864197 817.020203,523.053772 
	C812.766174,505.609344 808.966858,488.053436 804.660889,470.622375 
	C800.035645,451.898834 794.950378,433.289215 790.250854,414.583435 
	C789.301697,410.805450 787.364563,408.954895 783.556396,408.512360 
	C776.946411,407.744263 770.362915,406.748657 762.881348,405.694702 
M591.703491,505.699066 
	C600.749634,507.681824 609.795715,509.664612 618.634644,511.601959 
	C620.089111,509.517822 619.492676,507.929688 619.158691,506.303772 
	C616.316589,492.469818 613.562012,478.617706 610.681091,464.791931 
	C606.101685,442.815216 600.305054,421.137726 594.545166,399.450317 
	C593.535889,395.650116 591.715515,393.755951 587.512512,394.372498 
	C571.879639,396.665771 556.245911,398.980255 540.565613,400.904785 
	C536.152649,401.446411 535.236023,403.326538 535.256958,407.349792 
	C535.395935,434.013611 535.441589,460.679626 535.204041,487.342133 
	C535.162354,492.028595 536.916443,493.666351 541.175293,494.566925 
	C557.774780,498.077118 574.313110,501.876556 591.703491,505.699066 
M577.526855,758.699158 
	C626.779480,758.738403 676.032288,758.511047 725.321411,759.294067 
	C721.951416,756.329163 718.175598,754.583740 715.080872,751.713318 
	C704.948303,742.315063 697.471863,731.316101 694.317993,717.733826 
	C693.475891,714.107117 691.613708,712.850464 688.085144,712.933044 
	C680.926514,713.100403 673.762878,713.083496 666.601257,713.084778 
	C645.448059,713.088440 624.294617,713.118652 603.141968,713.002441 
	C599.084473,712.980164 596.980896,714.098022 595.916809,718.505493 
	C594.073730,726.139832 590.307190,733.092590 585.690918,739.474976 
	C580.251526,746.995422 574.157227,753.875305 565.695251,758.702942 
	C569.310791,758.702942 572.926392,758.702942 577.526855,758.699158 
M669.434692,695.608521 
	C711.731079,695.622192 754.027466,695.640686 796.323853,695.634888 
	C798.421143,695.634583 800.681946,695.918091 802.133423,693.865601 
	C798.239197,679.618530 789.080139,672.359375 774.658569,672.395203 
	C759.349426,672.433167 744.041321,672.786560 728.731995,672.905640 
	C716.410034,673.001526 704.086365,672.878967 691.764648,672.990234 
	C679.501099,673.100952 669.668762,681.513855 667.589478,693.463928 
	C667.421631,694.428589 667.864990,695.042175 669.434692,695.608521 
M535.645264,687.275452 
	C536.057251,682.424194 535.418945,677.610168 534.567810,672.891296 
	C532.804626,663.115662 529.697449,653.889954 522.238708,646.717773 
	C514.396729,639.177063 505.467102,638.967834 497.390533,646.285156 
	C492.848175,650.400452 489.805054,655.529541 487.541138,661.142273 
	C479.273010,681.640869 480.098907,701.590454 492.373352,720.236572 
	C500.756165,732.970886 512.998901,733.510498 523.174255,722.220947 
	C531.854736,712.589966 534.587280,700.676392 535.645264,687.275452 
M317.611786,714.029480 
	C320.665649,705.397827 321.562653,696.463684 320.590881,687.441284 
	C319.489441,677.214478 316.892426,667.454956 309.295074,659.805725 
	C302.804230,653.270630 296.653748,652.603271 289.212952,657.993164 
	C283.327545,662.256348 280.136871,668.461182 277.690247,675.113342 
	C270.820770,693.790771 272.503235,711.415955 284.531525,727.552490 
	C290.406799,735.434448 298.450989,736.250977 306.270477,730.509216 
	C311.771240,726.469971 314.285492,720.443481 317.611786,714.029480 
M785.301697,555.342773 
	C772.517578,554.582458 759.717590,554.024292 746.952942,553.017029 
	C724.900085,551.277039 702.813110,550.205139 680.721313,549.197815 
	C675.677673,548.967773 673.685852,551.837158 675.654663,556.494141 
	C676.857666,559.339722 678.793640,561.476196 682.342224,561.678711 
	C692.299194,562.247131 702.241211,563.077820 712.198792,563.633179 
	C732.456055,564.763062 752.719116,565.791077 772.980957,566.837646 
	C780.790405,567.240967 788.600159,567.710571 796.415771,567.893738 
	C800.290588,567.984558 802.624268,565.945068 802.759277,561.797791 
	C802.887085,557.873596 800.589844,556.572083 797.161255,556.304871 
	C793.518799,556.021057 789.881409,555.673218 785.301697,555.342773 
M666.154053,591.388367 
	C658.183350,579.937195 646.886902,575.754028 633.364746,576.166321 
	C630.011841,576.268555 628.926453,577.693542 629.321960,580.800598 
	C630.350403,588.880127 631.333984,597.003906 634.605957,604.539368 
	C637.835083,611.976013 643.296204,616.955383 651.544373,618.531128 
	C657.959412,619.756653 664.422058,619.780334 670.906677,619.802612 
	C674.102234,619.813538 675.073303,618.288330 674.452026,615.400940 
	C672.708435,607.297424 671.494324,599.012390 666.154053,591.388367 
M780.498840,585.306458 
	C766.880066,584.593811 753.259827,583.907776 739.642883,583.161682 
	C723.044922,582.252319 706.451233,581.264893 689.851685,580.386841 
	C687.593628,580.267456 684.893860,579.806763 683.741699,582.559143 
	C682.653870,585.157959 684.105774,587.429260 685.437500,589.546509 
	C686.927124,591.914856 689.446289,592.447327 691.965515,592.598083 
	C704.250427,593.333069 716.539429,594.003540 728.828979,594.657349 
	C747.262634,595.638184 765.699219,596.564697 784.131531,597.569641 
	C787.072083,597.729919 789.776001,597.085693 792.259033,595.638062 
	C794.408813,594.384705 795.762939,592.400818 795.438721,589.856384 
	C795.122925,587.377869 793.189209,586.497070 790.897156,585.902039 
	C787.753967,585.086060 784.599609,585.513428 780.498840,585.306458 
M716.792114,612.087769 
	C709.701721,610.778625 702.523071,611.429260 695.387390,611.193298 
	C690.585815,611.034485 689.113342,613.347839 690.713806,617.847778 
	C691.854492,621.055237 694.184753,622.495667 697.543884,622.666565 
	C725.254028,624.076538 753.025330,624.120911 780.699219,626.387329 
	C782.822205,626.561157 785.069580,626.047852 786.848389,624.698059 
	C788.947632,623.105042 790.294006,621.012268 789.560181,618.221191 
	C788.866028,615.581116 786.690186,615.402466 784.425720,615.254089 
	C781.948853,615.091797 779.495056,614.509583 777.019165,614.409729 
	C757.261292,613.612732 737.500610,612.886841 716.792114,612.087769 
M762.732483,643.085449 
	C741.155518,642.177124 719.579102,641.254150 698.000854,640.376770 
	C694.873108,640.249512 691.446106,640.466980 691.565613,644.663147 
	C691.670837,648.360229 693.387024,651.420898 697.767578,651.811951 
	C700.412659,652.047913 703.052246,652.603149 705.692627,652.592651 
	C729.119385,652.499634 752.500183,653.782410 775.890869,654.787903 
	C778.051819,654.880798 780.207886,654.825439 782.218140,653.772156 
	C784.920044,652.356506 786.056946,650.162964 785.546448,647.187256 
	C785.062866,644.369263 782.828796,644.215698 780.592163,644.090759 
	C774.955505,643.775635 769.320374,643.434326 762.732483,643.085449 
M804.264465,623.859863 
	C807.695740,627.614502 811.705688,624.502625 815.359741,624.547791 
	C823.379883,624.646851 828.767212,620.144531 831.400452,612.694702 
	C834.136963,604.952698 834.868042,596.872559 834.665039,588.681396 
	C834.588623,585.597595 832.962952,584.976318 830.420288,585.600586 
	C825.875671,586.716431 821.700684,588.424744 818.051575,591.619934 
	C808.489136,599.993164 805.392944,611.086487 804.264465,623.859863 
M573.549377,546.951233 
	C572.481689,543.451721 570.467712,541.036804 566.500366,541.044067 
	C559.003662,541.057800 551.505615,541.053589 544.010925,541.199707 
	C539.818542,541.281372 536.879517,543.380493 536.554871,547.705261 
	C536.248962,551.779541 539.756531,554.786438 544.458496,554.833984 
	C551.622620,554.906433 558.788391,554.790894 565.953064,554.832520 
	C570.804688,554.860718 573.450317,552.648438 573.549377,546.951233 
M607.494507,633.273499 
	C604.015076,633.281433 600.530334,633.413025 597.057617,633.264038 
	C593.263977,633.101318 590.754578,634.775146 590.527100,638.459839 
	C590.289978,642.301147 592.206970,645.533875 596.355164,645.771057 
	C603.292603,646.167664 610.264404,645.981201 617.221863,645.991577 
	C618.805664,645.993896 620.028015,645.464844 620.564636,643.670288 
	C622.707153,636.506042 620.376648,633.259583 612.956970,633.249695 
	C611.465820,633.247742 609.974609,633.261658 607.494507,633.273499 
M661.653259,651.172913 
	C659.030945,644.439270 654.964050,641.645813 650.028137,643.187622 
	C644.874573,644.797363 641.495483,650.534729 642.632019,655.745239 
	C643.993774,661.987976 648.300964,665.501282 653.768921,664.829346 
	C659.193298,664.162720 661.878601,659.847290 661.653259,651.172913 
M827.736755,651.808777 
	C823.973206,646.273438 819.262024,644.729370 814.785095,647.563843 
	C811.062378,649.920715 809.410034,656.156433 811.232971,660.968506 
	C812.860291,665.264160 817.097168,668.085144 821.221558,667.619080 
	C825.582886,667.126221 828.975098,662.991638 829.381165,657.695129 
	C829.526550,655.799133 828.666260,654.168030 827.736755,651.808777 
z"/>
<path fill="#000000" opacity="1.000000" stroke="none" 
	d="
M244.844925,480.121613 
	C224.163132,483.065826 203.911758,485.955444 183.657654,488.825867 
	C182.012695,489.059021 180.351593,489.267426 178.693802,489.305695 
	C171.640945,489.468567 167.385468,486.142517 166.717941,480.032654 
	C165.854416,472.128815 169.250259,467.017365 176.578842,465.848083 
	C201.553650,461.863312 226.532944,457.897888 251.552704,454.211151 
	C256.226868,453.522400 257.692078,451.469910 257.727753,447.050201 
	C257.858154,430.886688 257.031738,433.665100 244.917816,435.445587 
	C231.107544,437.475372 217.340485,439.802521 203.564423,442.060211 
	C196.203705,443.266541 191.381729,440.410645 189.907013,433.815338 
	C188.450302,427.300568 192.093079,420.255127 198.344543,418.783356 
	C205.607712,417.073334 213.033768,416.053925 220.390747,414.743805 
	C231.359039,412.790588 242.315857,410.767487 253.305786,408.944366 
	C256.570312,408.402771 257.898773,406.893890 257.709229,403.597321 
	C257.518219,400.275452 257.539948,396.926270 257.716736,393.602295 
	C257.917480,389.828125 256.310211,389.120575 252.843994,389.755157 
	C232.236115,393.528046 211.602615,397.161835 190.967438,400.783813 
	C186.878555,401.501465 182.761459,402.218597 178.628220,402.487152 
	C171.946609,402.921295 167.928680,399.757812 166.889999,393.737091 
	C165.845032,387.679932 169.711136,381.059204 175.518356,379.756073 
	C183.790405,377.899841 192.147705,376.422302 200.471573,374.798248 
	C217.744751,371.428101 235.002457,367.973663 252.306503,364.769806 
	C256.640259,363.967438 258.077087,361.864105 257.786316,357.620880 
	C257.038208,346.702637 258.688232,336.379425 265.899994,327.532471 
	C269.366638,323.279816 273.471130,320.144745 278.751862,318.478119 
	C305.570892,310.013763 332.353912,301.435272 359.182037,292.999908 
	C389.977875,283.316895 420.816772,273.770844 451.616333,264.099426 
	C459.030365,261.771332 459.343445,261.874725 459.343750,269.356659 
	C459.348419,380.517792 459.348175,491.678955 459.343781,602.840088 
	C459.343506,610.041260 459.341095,610.317749 452.191620,610.773438 
	C436.240723,611.790161 420.260345,612.346924 404.310516,613.378235 
	C383.559113,614.720032 362.823273,616.307312 342.085632,617.854736 
	C331.867950,618.617188 321.875183,619.449158 311.482147,617.313110 
	C292.195435,613.349060 276.104156,620.800293 263.272614,635.055176 
	C253.782074,645.598511 247.608429,658.130371 244.058578,671.912903 
	C243.673538,673.407776 243.685776,675.299500 241.308319,675.962463 
	C239.411774,669.926331 242.101700,664.179932 242.089722,657.737305 
	C233.486557,658.429077 224.941391,659.080933 216.403397,659.816406 
	C211.595901,660.230530 206.810364,660.991028 201.996964,661.223267 
	C194.891251,661.566101 190.510086,657.665649 189.846436,650.828491 
	C189.232315,644.501526 193.219971,638.625549 199.564072,637.765381 
	C213.741211,635.843018 227.977295,634.354370 242.191483,632.707031 
	C245.830353,632.285339 249.480087,631.957642 253.119156,631.537537 
	C256.144745,631.188293 258.081635,629.920959 257.712769,626.388428 
	C257.488983,624.245056 257.666504,622.059631 257.666260,619.893066 
	C257.665314,611.885925 257.435974,611.596741 249.588821,612.422424 
	C226.121628,614.891724 202.659653,617.411072 179.201126,619.961609 
	C172.934875,620.642883 168.062912,617.433350 166.886490,611.640259 
	C165.421738,604.427307 168.860001,597.945618 175.723022,596.661804 
	C183.548859,595.197937 191.540878,594.611694 199.466446,593.693970 
	C217.151260,591.645996 234.840012,589.632202 252.526337,587.597046 
	C255.933243,587.205078 258.056549,585.816833 257.739105,581.835815 
	C257.461823,578.357727 257.606781,574.839355 257.685608,571.341492 
	C257.755127,568.255432 256.338806,567.165466 253.354095,567.549194 
	C241.656082,569.053223 229.958221,570.565002 218.243225,571.927002 
	C212.634872,572.578979 206.995804,573.133545 201.357193,573.316101 
	C194.322174,573.543823 190.634888,570.229675 189.831955,563.576965 
	C189.101852,557.527710 192.820404,551.364380 198.554413,550.220032 
	C205.729416,548.788025 213.010681,547.855286 220.270096,546.887085 
	C231.163269,545.434204 242.065598,544.030640 252.989151,542.835754 
	C256.573700,542.443665 258.043091,540.923523 257.709167,537.375610 
	C257.538086,535.557922 257.679260,533.711792 257.660370,531.878662 
	C257.588776,524.938049 255.349274,523.244568 248.504379,523.986145 
	C225.361053,526.493347 202.411041,530.559387 179.202362,532.515381 
	C172.280594,533.098755 168.160263,530.348938 166.886795,524.377930 
	C165.608368,518.383728 168.710175,512.233337 174.575302,510.494354 
	C186.116669,507.072418 198.180237,506.530487 210.008041,504.678864 
	C223.150131,502.621460 236.325668,500.772095 249.449890,498.609009 
	C254.768356,497.732452 259.052826,485.407806 255.549133,481.415619 
	C252.604446,478.060364 248.853867,479.377747 244.844925,480.121613 
z"/>
<path fill="#000000" opacity="1.000000" stroke="none" 
	d="
M472.840424,458.000000 
	C472.839996,392.575073 472.839996,327.650177 472.839996,262.430359 
	C479.323730,261.838745 485.163910,263.257233 490.989777,263.919952 
	C526.370605,267.944458 561.714355,272.293701 597.082092,276.435059 
	C632.939026,280.633759 668.817261,284.650787 704.667908,288.901733 
	C712.858765,289.872955 721.372742,290.159668 727.689697,296.923126 
	C732.465393,302.036407 735.192078,307.977936 735.270081,314.892639 
	C735.437378,329.718262 735.236511,344.547913 735.389587,359.373840 
	C735.429138,363.209839 733.983215,364.287720 730.334290,363.958801 
	C705.501160,361.720245 680.685608,359.143097 655.807190,357.596283 
	C637.068726,356.431244 618.327515,354.278076 599.538025,354.818024 
	C581.745972,355.329315 564.224731,358.766785 546.654663,361.446564 
	C532.854248,363.551422 519.103516,365.994751 505.282043,367.943146 
	C500.427734,368.627411 499.184906,370.770844 499.193176,375.491943 
	C499.319397,447.629700 499.249542,519.767822 499.250977,591.905884 
	C499.251190,602.141602 499.145599,600.634827 491.735016,603.484009 
	C486.543243,605.480103 482.213226,608.912598 477.893616,612.315979 
	C476.636414,613.306458 475.760651,614.950867 472.840851,614.470825 
	C472.840851,562.560974 472.840851,510.530487 472.840424,458.000000 
z"/>
<path fill="#000000" opacity="1.000000" stroke="none" 
	d="
M496.380371,672.676270 
	C497.553467,668.539062 499.234009,665.226440 502.321899,662.647827 
	C507.085419,658.669983 511.199005,658.648132 515.318237,663.428589 
	C521.845337,671.003540 522.803955,680.302979 522.011414,689.708801 
	C521.467651,696.162964 519.606079,702.436768 515.429077,707.715820 
	C510.623566,713.789368 504.628754,713.914246 500.252594,707.528809 
	C492.922516,696.833252 493.431061,685.031799 496.380371,672.676270 
z"/>
<path fill="#000000" opacity="1.000000" stroke="none" 
	d="
M293.026947,716.441956 
	C282.895966,707.591980 281.808960,684.737061 290.744598,675.393372 
	C294.601746,671.360107 300.053223,671.567688 303.652252,676.425171 
	C309.523376,684.349060 309.542450,693.445190 307.859558,702.659119 
	C307.165771,706.457520 305.499969,709.908142 303.205353,713.056030 
	C300.704773,716.486450 297.694763,718.321289 293.026947,716.441956 
z"/>
</svg>